<svg width="24" height="25" viewBox="0 0 24 25" fill="none" xmlns="http://www.w3.org/2000/svg">
<path d="M14.94 3.43482C14.136 2.97682 13.101 2.86182 12.067 2.86182C6.547 2.86082 2.06 7.34782 2.06 12.8688C2.06 17.0108 4.59 20.6898 8.387 22.1858C8.27199 21.2306 8.27199 20.265 8.387 19.3098C8.616 18.5038 9.536 14.3638 9.536 14.3638C9.29993 13.9014 9.18111 13.388 9.19 12.8688C9.19 11.4878 9.995 10.4528 11.031 10.4528C11.72 10.4528 12.297 11.0278 12.297 11.7188V11.8338C12.068 12.9838 11.838 14.0188 11.491 15.1678C11.262 15.9728 11.72 16.7778 12.526 16.8948H12.987C14.713 16.8948 16.091 15.0538 16.091 12.2928C16.207 10.1068 14.482 8.26782 12.296 8.26782H11.95C9.65 8.15182 7.695 9.99182 7.58 12.4078V12.6368C7.58 13.4418 7.809 14.2458 8.269 14.9378C8.384 15.0518 8.384 15.1668 8.384 15.1668C8.2741 15.5417 8.19747 15.9255 8.155 16.3138C8.155 16.5428 8.039 16.5428 7.808 16.4298C6.543 15.6228 5.739 14.1298 5.739 12.5168C5.739 9.41182 8.039 6.53682 12.295 6.53682C15.516 6.42182 18.275 8.83682 18.391 12.0578V12.2868C18.391 15.7408 16.205 18.4978 13.217 18.4978C12.295 18.4978 11.488 18.1518 10.913 17.3498C10.913 17.3498 10.454 19.3048 10.338 19.7648C9.993 20.6848 9.649 21.6068 9.072 22.4108C14.364 24.0198 19.884 21.1438 21.493 15.8528C23.104 10.5668 20.23 5.04582 14.94 3.43482Z" fill="black"/>
</svg>
