<svg width="24" height="25" viewBox="0 0 24 25" fill="none" xmlns="http://www.w3.org/2000/svg">
<path d="M12.001 2.9209C6.478 2.9209 2 7.3969 2 12.9209C2 17.9139 5.661 22.0529 10.445 22.7999V15.8099H7.89V12.9209H10.446L10.447 10.7179C10.447 8.2119 11.931 6.8219 14.216 6.8219C15.311 6.8219 16.446 7.0319 16.446 7.0319V9.4769H15.193C13.951 9.4769 13.554 10.2539 13.554 11.0449L13.557 12.9209H16.334L15.89 15.8099H13.557V22.7999C18.34 22.0519 22 17.9139 22 12.9209C22 7.3969 17.523 2.9209 12.001 2.9209Z" fill="black"/>
</svg>
