<svg width="24" height="25" viewBox="0 0 24 25" fill="none" xmlns="http://www.w3.org/2000/svg">
<path d="M21.938 8.75986C21.938 7.95986 21.739 7.15986 21.438 6.35986C20.938 4.95986 19.938 3.85986 18.538 3.35986C17.739 3.05986 16.938 2.95986 16.138 2.85986H12.039C10.639 2.85986 9.23899 2.85986 7.83899 2.95986C7.03899 2.95986 6.23899 3.15986 5.53899 3.45986C4.23899 3.95986 3.13899 4.95986 2.63899 6.25986C2.33899 7.05986 2.13899 7.85986 2.13899 8.75986C2.13899 9.85986 2.03899 10.1599 2.03899 12.8599C1.93899 14.2599 1.93899 15.5599 2.03899 16.9599C2.03899 17.7609 2.23899 18.5609 2.53899 19.3599C3.03899 20.6599 4.13899 21.7599 5.43899 22.2599C6.23899 22.5599 7.03899 22.6589 7.83899 22.7599C9.23899 22.8599 10.639 22.8599 12.039 22.8599C13.439 22.8599 14.839 22.8599 16.138 22.7599C16.939 22.7599 17.74 22.5599 18.538 22.2599C19.1936 21.9999 19.7891 21.6084 20.2878 21.1097C20.7866 20.611 21.178 20.0155 21.438 19.3599C21.739 18.5599 21.836 17.7599 21.938 16.9599C21.938 15.8599 22.038 15.5609 22.038 12.8599C22.038 10.1589 21.938 9.75986 21.938 8.75986ZM20.137 16.8599C20.137 17.4599 20.037 18.1599 19.838 18.7599C19.537 19.6579 18.838 20.3599 17.938 20.6579C17.338 20.8589 16.637 20.9589 16.038 20.9589C14.938 20.9589 14.638 21.0609 12.038 21.0609C10.738 21.0609 9.33799 21.0609 8.03799 20.9589C7.43799 20.9589 6.83799 20.8589 6.13799 20.6589C5.23799 20.3589 4.53799 19.6589 4.23799 18.7599C3.93799 18.1589 3.83799 17.5599 3.83799 16.8599C3.83799 15.7599 3.73799 15.4599 3.73799 12.8599C3.73799 11.5599 3.73799 10.1599 3.83799 8.85986C3.93799 8.25986 4.03799 7.55986 4.13799 6.95986C4.43799 6.05986 5.13799 5.35986 6.03799 5.05986C6.73799 4.85986 7.33799 4.75986 8.03799 4.75986C9.13799 4.75986 9.43799 4.65986 12.038 4.65986C13.338 4.65986 14.739 4.65986 16.038 4.75986C16.638 4.75986 17.339 4.85986 17.938 5.05986C18.836 5.35986 19.538 6.05986 19.836 6.95986C20.037 7.55986 20.137 8.25986 20.137 8.85986C20.137 9.95986 20.239 10.2599 20.239 12.8599C20.238 15.4599 20.137 15.8599 20.137 16.8599Z" fill="black"/>
<path d="M12.138 7.75986C9.23802 7.75986 7.03802 10.0599 7.03802 12.8599C7.03802 15.6599 9.33802 17.9599 12.138 17.9599C14.938 17.9599 17.239 15.6599 17.239 12.8599C17.239 10.0599 14.938 7.75986 12.138 7.75986ZM12.138 16.1599C10.338 16.1599 8.83803 14.6599 8.83803 12.8599C8.83803 11.0599 10.338 9.55986 12.138 9.55986C13.938 9.55986 15.338 11.0599 15.438 12.8599C15.438 14.6599 13.938 16.1599 12.138 16.1599ZM17.438 6.35986C16.739 6.35986 16.239 6.85986 16.239 7.55986C16.239 8.25986 16.739 8.75986 17.438 8.75986C18.137 8.75986 18.637 8.25986 18.637 7.55986C18.637 6.85986 18.137 6.35986 17.438 6.35986Z" fill="black"/>
</svg>
