<svg width="24" height="25" viewBox="0 0 24 25" fill="none" xmlns="http://www.w3.org/2000/svg">
<path d="M2 18.9598C4.2 19.1598 6.3 18.4598 7.9 17.0608C6.7 16.9598 4.3 14.6608 3.9 14.1608H5.5C3.6 13.6608 2.3 11.9608 2.3 10.0608C2.9 10.1598 3.5 10.3598 4 10.5598H4.2C2.7 9.15977 2.2 6.85977 3.1 4.95977C5.2 7.55977 8.4 9.15977 11.7 9.35977V8.25977C11.8 6.05977 13.7 4.25977 15.9 4.25977C16.8 4.25977 17.6 4.55977 18.3 5.05977C18.7 5.35977 19.1 5.35977 19.5 5.25977L21.4 4.55977C21 5.45977 20.5 6.15977 19.8 6.85977C20.401 6.75977 21.1 6.45977 21.7 6.35977L22 6.55977C21.4 7.05977 20.8 7.65977 20.3 8.05977C20.2 8.35977 20.1 8.75977 20.1 9.15977C20.1 11.0598 19.6 12.9598 18.8 14.7608C17.8703 16.472 16.5375 17.9309 14.9171 19.011C13.2966 20.0912 11.4372 20.7601 9.5 20.9598C7.1 21.1598 4.6 20.7608 2.5 19.6598L2 18.9598Z" fill="black"/>
</svg>
