<svg width="41" height="40" viewBox="0 0 41 40" fill="none" xmlns="http://www.w3.org/2000/svg">
<rect x="0.659973" width="40" height="40" rx="20" fill="white"/>
<path fill-rule="evenodd" clip-rule="evenodd" d="M12.458 13.786C13.525 12.798 14.9258 12.2494 16.38 12.25C17.835 12.25 19.237 12.798 20.302 13.786L20.307 13.791L20.648 14.113L20.98 13.796C22.0479 12.8051 23.4512 12.255 24.908 12.256C26.366 12.256 27.77 12.806 28.836 13.796L28.84 13.8C29.933 14.832 30.439 16.124 30.409 17.462C30.379 18.785 29.831 20.105 28.909 21.247C28.025 22.343 26.059 24.19 24.362 25.725C23.3216 26.6653 22.2706 27.5937 21.209 28.51L21.14 28.569L20.651 28L21.141 28.569L20.655 28.985L20.167 28.573C17.4586 26.2802 14.8717 23.8475 12.417 21.285L12.396 21.264L12.376 21.241C10.651 19.126 10.173 15.921 12.456 13.788L12.458 13.786ZM20.648 27.012C21.5589 26.2214 22.4616 25.4213 23.356 24.612C25.076 23.056 26.946 21.292 27.741 20.306C28.498 19.367 28.889 18.358 28.909 17.429C28.929 16.517 28.596 15.634 27.812 14.893C27.0222 14.161 25.9849 13.7545 24.908 13.755C23.8317 13.7542 22.7948 14.1599 22.005 14.891L20.655 16.183L19.28 14.883C18.4904 14.1537 17.4548 13.7491 16.38 13.75C15.3045 13.7494 14.2685 14.1548 13.479 14.885C11.972 16.293 12.126 18.544 13.521 20.27C15.7854 22.6321 18.1639 24.8821 20.648 27.012Z" fill="black"/>
</svg>
